<?xml version="1.0" encoding="UTF-8" standalone="no"?>
<!DOCTYPE svg PUBLIC "-//W3C//DTD SVG 1.1//EN" "http://www.w3.org/Graphics/SVG/1.1/DTD/svg11.dtd">
<svg width="100%" height="100%" viewBox="0 0 32 32" version="1.1" xmlns="http://www.w3.org/2000/svg" xmlns:xlink="http://www.w3.org/1999/xlink" xml:space="preserve" xmlns:serif="http://www.serif.com/" style="fill-rule:evenodd;clip-rule:evenodd;stroke-linejoin:round;stroke-miterlimit:2;">
    <g transform="matrix(1.3227,0,0,1.3227,-2.52833,-6.19022)">
        <path d="M13.237,4.887C13.714,4.611 14.302,4.611 14.779,4.887C16.749,6.024 21.95,9.027 23.919,10.164C24.396,10.439 24.69,10.948 24.69,11.499L24.69,22.054C24.69,22.605 24.396,23.114 23.919,23.389C21.95,24.526 16.749,27.529 14.779,28.666C14.302,28.942 13.714,28.942 13.237,28.666C11.267,27.529 6.066,24.526 4.097,23.389C3.62,23.114 3.326,22.605 3.326,22.054L3.326,11.499C3.326,10.948 3.62,10.439 4.097,10.164C6.066,9.027 11.267,6.024 13.237,4.887Z" style="fill:rgb(255,135,41);"/>
    </g>
    <g transform="matrix(1.0197,0,0,1.0197,-0.331732,-0.315144)">
        <path d="M6.576,5.45C9.562,3.726 13.269,1.586 15.016,0.578C15.635,0.22 16.398,0.22 17.016,0.578L17.136,0.647L25.31,14.804C25.442,15.034 25.479,15.307 25.409,15.563C25.341,15.819 25.174,16.038 24.944,16.17C23.051,17.263 18.567,19.852 16.676,20.944C16.446,21.077 16.173,21.112 15.916,21.043C15.66,20.975 15.442,20.807 15.31,20.578L6.576,5.45Z" style="fill:rgb(255,202,41);"/>
    </g>
    <g transform="matrix(1.0197,0,0,1.0197,-0.331732,-0.315144)">
        <path d="M14.848,31.325L6.691,17.196C6.558,16.966 6.522,16.694 6.59,16.437C6.66,16.181 6.827,15.963 7.056,15.83C8.948,14.738 13.432,12.149 15.325,11.056C15.555,10.924 15.827,10.888 16.083,10.957C16.34,11.025 16.558,11.193 16.691,11.423L25.429,26.557L16.864,31.502C16.276,31.778 15.585,31.751 15.016,31.422L14.848,31.325Z" style="fill:rgb(255,41,94);"/>
    </g>
    <g transform="matrix(1.0197,0,0,1.0197,-0.331732,-0.315144)">
        <path d="M11.191,13.443L15.31,20.578C15.442,20.807 15.66,20.975 15.916,21.043C16.173,21.112 16.446,21.077 16.676,20.944L20.81,18.557L16.691,11.423C16.558,11.193 16.34,11.025 16.083,10.957C15.827,10.888 15.555,10.924 15.325,11.056L11.191,13.443Z" style="fill:white;"/>
    </g>
</svg>
